<svg xmlns="http://www.w3.org/2000/svg" viewBox="0 0 32 32" fill="none" role="img" aria-label="شوبيفاي">
  <rect width="32" height="32" rx="8" fill="#96BF48"/>
  <path d="M19.5 9.2c-.2-.8-.9-1.2-1.6-1.1-1.2.2-2.4.7-3.3 1.3-.3-1-.7-1.5-1.2-1.5-.1 0-.3 0-.4.1-2 .7-3.5 2.6-3.8 4.9l-1.6.5c-.5.2-.5.2-.4.7l2.8 10.6c0 .2.2.3.4.3h11.8c.3 0 .5-.2.6-.5l1.7-11.2c0-.3-.1-.5-.4-.6l-1-.3c.1-1.2 0-2.4-.5-3.2z" fill="#fff"/>
  <path d="M16.8 8.8c.4 0 .7.3.8.7.5 1.5.4 3.1-.2 4.5" stroke="#96BF48" stroke-width=".8" fill="none"/>
</svg>
